<svg width="349" height="352" viewBox="0 0 349 352" fill="none" xmlns="http://www.w3.org/2000/svg">
<rect x="59.5" y="57" width="10" height="10" rx="5" fill="#D16D0B"/>
<rect x="89.5" y="77" width="7" height="7" rx="3.5" fill="#D16D0B"/>
<rect x="80.5" y="89" width="7" height="7" rx="3.5" fill="#D16D0B"/>
<rect x="101.5" y="79" width="7" height="7" rx="3.5" fill="#D16D0B"/>
<rect x="81.5" y="100" width="7" height="7" rx="3.5" fill="#D16D0B"/>
<path d="M65 63L115 114" stroke="url(#paint0_linear_450_13168)" stroke-width="2.5"/>
<path d="M93 81L120 109" stroke="url(#paint1_linear_450_13168)" stroke-width="1.5"/>
<path d="M84 93L110 120" stroke="url(#paint2_linear_450_13168)" stroke-width="1.5"/>
<path d="M105 83L125 104" stroke="url(#paint3_linear_450_13168)" stroke-width="1.5"/>
<path d="M85 104L105 125" stroke="url(#paint4_linear_450_13168)" stroke-width="1.5"/>
<path d="M17 175.5L88 175.5" stroke="#FB9217" stroke-width="2.5"/>
<path d="M40 184.5L88 184.5" stroke="#FB9217" stroke-width="1.5"/>
<path d="M42 167.5L88 167.5" stroke="#FB9217" stroke-width="1.5"/>
<path d="M51 160.5L90 160.5" stroke="#FB9217" stroke-width="1.5"/>
<path d="M62 151.5L92 151.5" stroke="#FB9217" stroke-width="1.5"/>
<path d="M54 191.5L89 191.5" stroke="#FB9217" stroke-width="1.5"/>
<path d="M56 200.5L91 200.5" stroke="#FB9217" stroke-width="1.5"/>
<g filter="url(#filter0_d_450_13168)">
<path d="M17 170.5C14.2386 170.5 12 172.739 12 175.5C12 178.261 14.2386 180.5 17 180.5C19.7614 180.5 22 178.261 22 175.5C22 172.739 19.7614 170.5 17 170.5Z" fill="#FB9217"/>
<path d="M12.5 175.5C12.5 177.985 14.5147 180 17 180C19.4853 180 21.5 177.985 21.5 175.5C21.5 173.015 19.4853 171 17 171C14.5147 171 12.5 173.015 12.5 175.5Z" stroke="#FB9217"/>
</g>
<path d="M37.5 181C35.567 181 34 182.567 34 184.5C34 186.433 35.567 188 37.5 188C39.433 188 41 186.433 41 184.5C41 182.567 39.433 181 37.5 181Z" fill="#FB9217"/>
<rect width="7" height="7" rx="3.5" transform="matrix(4.37114e-08 1 1 -4.37114e-08 38 164)" fill="#FB9217"/>
<rect width="7" height="7" rx="3.5" transform="matrix(4.37114e-08 1 1 -4.37114e-08 47 157)" fill="#FB9217"/>
<rect width="7" height="7" rx="3.5" transform="matrix(4.37114e-08 1 1 -4.37114e-08 58 148)" fill="#FB9217"/>
<rect width="7" height="7" rx="3.5" transform="matrix(4.37114e-08 1 1 -4.37114e-08 48 188)" fill="#FB9217"/>
<rect width="7" height="7" rx="3.5" transform="matrix(4.37114e-08 1 1 -4.37114e-08 51 197)" fill="#FB9217"/>
<path d="M51.5 130.5L66 145.5L93 145.5" stroke="#FB9217" stroke-width="1.5"/>
<path d="M49.5 132.5C47.567 132.5 46 130.933 46 129C46 127.067 47.567 125.5 49.5 125.5C51.433 125.5 53 127.067 53 129C53 130.933 51.433 132.5 49.5 132.5Z" fill="#FB9217"/>
<path d="M51.5 221.5L66 206.5L92 206.5" stroke="#FB9217" stroke-width="1.5"/>
<path d="M49.5 219.5C47.567 219.5 46 221.067 46 223C46 224.933 47.567 226.5 49.5 226.5C51.433 226.5 53 224.933 53 223C53 221.067 51.433 219.5 49.5 219.5Z" fill="#FB9217"/>
<rect x="57" y="295" width="10" height="10" rx="5" transform="rotate(-90 57 295)" fill="#D16D0B"/>
<rect x="77" y="265" width="7" height="7" rx="3.5" transform="rotate(-90 77 265)" fill="#D16D0B"/>
<rect x="89" y="274" width="7" height="7" rx="3.5" transform="rotate(-90 89 274)" fill="#D16D0B"/>
<rect x="79" y="253" width="7" height="7" rx="3.5" transform="rotate(-90 79 253)" fill="#D16D0B"/>
<rect x="100" y="273" width="7" height="7" rx="3.5" transform="rotate(-90 100 273)" fill="#D16D0B"/>
<path d="M63 289.5L114 239.5" stroke="url(#paint5_linear_450_13168)" stroke-width="2.5"/>
<path d="M81 261.5L109 234.5" stroke="url(#paint6_linear_450_13168)" stroke-width="1.5"/>
<path d="M93 270.5L120 244.5" stroke="url(#paint7_linear_450_13168)" stroke-width="1.5"/>
<path d="M83 249.5L104 229.5" stroke="url(#paint8_linear_450_13168)" stroke-width="1.5"/>
<path d="M104 269.5L125 249.5" stroke="url(#paint9_linear_450_13168)" stroke-width="1.5"/>
<path d="M175.5 335V264" stroke="#FB9217" stroke-width="2.5"/>
<path d="M184.5 312V264" stroke="#FB9217" stroke-width="1.5"/>
<path d="M167.5 310L167.5 264" stroke="#FB9217" stroke-width="1.5"/>
<path d="M160.5 301L160.5 262" stroke="#FB9217" stroke-width="1.5"/>
<path d="M151.5 290L151.5 260" stroke="#FB9217" stroke-width="1.5"/>
<path d="M191.5 298V263" stroke="#FB9217" stroke-width="1.5"/>
<path d="M200.5 296V261" stroke="#FB9217" stroke-width="1.5"/>
<g filter="url(#filter1_d_450_13168)">
<path d="M170.5 335C170.5 337.761 172.739 340 175.5 340C178.261 340 180.5 337.761 180.5 335C180.5 332.239 178.261 330 175.5 330C172.739 330 170.5 332.239 170.5 335Z" fill="#FB9217"/>
<path d="M175.5 339.5C177.985 339.5 180 337.485 180 335C180 332.515 177.985 330.5 175.5 330.5C173.015 330.5 171 332.515 171 335C171 337.485 173.015 339.5 175.5 339.5Z" stroke="#FB9217"/>
</g>
<path d="M181 314.5C181 316.433 182.567 318 184.5 318C186.433 318 188 316.433 188 314.5C188 312.567 186.433 311 184.5 311C182.567 311 181 312.567 181 314.5Z" fill="#FB9217"/>
<rect width="7" height="7" rx="3.5" transform="matrix(1 0 0 -1 164 314)" fill="#FB9217"/>
<rect width="7" height="7" rx="3.5" transform="matrix(1 0 0 -1 157 305)" fill="#FB9217"/>
<rect width="7" height="7" rx="3.5" transform="matrix(1 0 0 -1 148 294)" fill="#FB9217"/>
<rect width="7" height="7" rx="3.5" transform="matrix(1 0 0 -1 188 304)" fill="#FB9217"/>
<rect width="7" height="7" rx="3.5" transform="matrix(1 0 0 -1 197 301)" fill="#FB9217"/>
<path d="M130.5 300.5L145.5 286V259" stroke="#FB9217" stroke-width="1.5"/>
<path d="M132.5 302.5C132.5 304.433 130.933 306 129 306C127.067 306 125.5 304.433 125.5 302.5C125.5 300.567 127.067 299 129 299C130.933 299 132.5 300.567 132.5 302.5Z" fill="#FB9217"/>
<path d="M221.5 300.5L206.5 286V259" stroke="#FB9217" stroke-width="1.5"/>
<path d="M219.5 302.5C219.5 304.433 221.067 306 223 306C224.933 306 226.5 304.433 226.5 302.5C226.5 300.567 224.933 299 223 299C221.067 299 219.5 300.567 219.5 302.5Z" fill="#FB9217"/>
<rect x="295" y="295" width="10" height="10" rx="5" transform="rotate(-180 295 295)" fill="#D16D0B"/>
<rect x="265" y="275" width="7" height="7" rx="3.5" transform="rotate(-180 265 275)" fill="#D16D0B"/>
<rect x="274" y="263" width="7" height="7" rx="3.5" transform="rotate(-180 274 263)" fill="#D16D0B"/>
<rect x="253" y="273" width="7" height="7" rx="3.5" transform="rotate(-180 253 273)" fill="#D16D0B"/>
<rect x="273" y="252" width="7" height="7" rx="3.5" transform="rotate(-180 273 252)" fill="#D16D0B"/>
<path d="M289.5 289L239.5 238" stroke="url(#paint10_linear_450_13168)" stroke-width="2.5"/>
<path d="M261.5 271L234.5 243" stroke="url(#paint11_linear_450_13168)" stroke-width="1.5"/>
<path d="M270.5 259L244.5 232" stroke="url(#paint12_linear_450_13168)" stroke-width="1.5"/>
<path d="M249.5 269L229.5 248" stroke="url(#paint13_linear_450_13168)" stroke-width="1.5"/>
<path d="M269.5 248L249.5 227" stroke="url(#paint14_linear_450_13168)" stroke-width="1.5"/>
<path d="M332 176L261 176" stroke="#FB9217" stroke-width="2.5"/>
<path d="M309 185L261 185" stroke="#FB9217" stroke-width="1.5"/>
<path d="M307 168L261 168" stroke="#FB9217" stroke-width="1.5"/>
<path d="M298 161L259 161" stroke="#FB9217" stroke-width="1.5"/>
<path d="M287 152L257 152" stroke="#FB9217" stroke-width="1.5"/>
<path d="M295 192L260 192" stroke="#FB9217" stroke-width="1.5"/>
<path d="M293 201L258 201" stroke="#FB9217" stroke-width="1.5"/>
<g filter="url(#filter2_d_450_13168)">
<path d="M332 171C334.761 171 337 173.239 337 176C337 178.761 334.761 181 332 181C329.239 181 327 178.761 327 176C327 173.239 329.239 171 332 171Z" fill="#FB9217"/>
<path d="M336.5 176C336.5 178.485 334.485 180.5 332 180.5C329.515 180.5 327.5 178.485 327.5 176C327.5 173.515 329.515 171.5 332 171.5C334.485 171.5 336.5 173.515 336.5 176Z" stroke="#FB9217"/>
</g>
<path d="M311.5 181.5C313.433 181.5 315 183.067 315 185C315 186.933 313.433 188.5 311.5 188.5C309.567 188.5 308 186.933 308 185C308 183.067 309.567 181.5 311.5 181.5Z" fill="#FB9217"/>
<rect x="311" y="164.5" width="7" height="7" rx="3.5" transform="rotate(90 311 164.5)" fill="#FB9217"/>
<rect x="302" y="157.5" width="7" height="7" rx="3.5" transform="rotate(90 302 157.5)" fill="#FB9217"/>
<rect x="291" y="148.5" width="7" height="7" rx="3.5" transform="rotate(90 291 148.5)" fill="#FB9217"/>
<rect x="301" y="188.5" width="7" height="7" rx="3.5" transform="rotate(90 301 188.5)" fill="#FB9217"/>
<rect x="298" y="197.5" width="7" height="7" rx="3.5" transform="rotate(90 298 197.5)" fill="#FB9217"/>
<path d="M297.5 131L283 146L256 146" stroke="#FB9217" stroke-width="1.5"/>
<path d="M299.5 133C301.433 133 303 131.433 303 129.5C303 127.567 301.433 126 299.5 126C297.567 126 296 127.567 296 129.5C296 131.433 297.567 133 299.5 133Z" fill="#FB9217"/>
<path d="M297.5 222L283 207L257 207" stroke="#FB9217" stroke-width="1.5"/>
<path d="M299.5 220C301.433 220 303 221.567 303 223.5C303 225.433 301.433 227 299.5 227C297.567 227 296 225.433 296 223.5C296 221.567 297.567 220 299.5 220Z" fill="#FB9217"/>
<path d="M175.5 17V88" stroke="#FB9217" stroke-width="2.5"/>
<path d="M184.5 40V88" stroke="#FB9217" stroke-width="1.5"/>
<path d="M167.5 42L167.5 88" stroke="#FB9217" stroke-width="1.5"/>
<path d="M160.5 51L160.5 90" stroke="#FB9217" stroke-width="1.5"/>
<path d="M151.5 62L151.5 92" stroke="#FB9217" stroke-width="1.5"/>
<path d="M191.5 54V89" stroke="#FB9217" stroke-width="1.5"/>
<path d="M200.5 56V91" stroke="#FB9217" stroke-width="1.5"/>
<g filter="url(#filter3_d_450_13168)">
<path d="M170.5 17C170.5 14.2386 172.739 12 175.5 12C178.261 12 180.5 14.2386 180.5 17C180.5 19.7614 178.261 22 175.5 22C172.739 22 170.5 19.7614 170.5 17Z" fill="#FB9217"/>
<path d="M175.5 12.5C177.985 12.5 180 14.5147 180 17C180 19.4853 177.985 21.5 175.5 21.5C173.015 21.5 171 19.4853 171 17C171 14.5147 173.015 12.5 175.5 12.5Z" stroke="#FB9217"/>
</g>
<path d="M181 37.5C181 35.567 182.567 34 184.5 34C186.433 34 188 35.567 188 37.5C188 39.433 186.433 41 184.5 41C182.567 41 181 39.433 181 37.5Z" fill="#FB9217"/>
<rect x="164" y="38" width="7" height="7" rx="3.5" fill="#FB9217"/>
<rect x="157" y="47" width="7" height="7" rx="3.5" fill="#FB9217"/>
<rect x="148" y="58" width="7" height="7" rx="3.5" fill="#FB9217"/>
<rect x="188" y="48" width="7" height="7" rx="3.5" fill="#FB9217"/>
<rect x="197" y="51" width="7" height="7" rx="3.5" fill="#FB9217"/>
<path d="M130.5 51.5L145.5 66V93" stroke="#FB9217" stroke-width="1.5"/>
<path d="M132.5 49.5C132.5 47.567 130.933 46 129 46C127.067 46 125.5 47.567 125.5 49.5C125.5 51.433 127.067 53 129 53C130.933 53 132.5 51.433 132.5 49.5Z" fill="#FB9217"/>
<path d="M221.5 51.5L206.5 66V93" stroke="#FB9217" stroke-width="1.5"/>
<path d="M219.5 49.5C219.5 47.567 221.067 46 223 46C224.933 46 226.5 47.567 226.5 49.5C226.5 51.433 224.933 53 223 53C221.067 53 219.5 51.433 219.5 49.5Z" fill="#FB9217"/>
<path d="M291.25 58.2502C294.011 58.2502 296.25 60.4888 296.25 63.2502C296.25 66.0117 294.011 68.2502 291.25 68.2502C288.489 68.2502 286.25 66.0117 286.25 63.2502C286.25 60.4888 288.489 58.2502 291.25 58.2502Z" fill="#D16D0B"/>
<path d="M272.75 88.2515C274.683 88.2515 276.25 89.8185 276.25 91.7515C276.25 93.6845 274.683 95.2515 272.75 95.2515C270.817 95.2515 269.25 93.6845 269.25 91.7515C269.25 89.8185 270.817 88.2515 272.75 88.2515Z" fill="#D16D0B"/>
<path d="M260.75 79.2452C262.683 79.2452 264.25 80.8122 264.25 82.7452C264.25 84.6782 262.683 86.2452 260.75 86.2452C258.817 86.2452 257.25 84.6782 257.25 82.7452C257.25 80.8122 258.817 79.2452 260.75 79.2452Z" fill="#D16D0B"/>
<rect x="274.25" y="100.248" width="7" height="7" rx="3.5" transform="rotate(90 274.25 100.248)" fill="#D16D0B"/>
<path d="M249.75 80.254C251.683 80.254 253.25 81.821 253.25 83.754C253.25 85.687 251.683 87.254 249.75 87.254C247.817 87.254 246.25 85.687 246.25 83.754C246.25 81.821 247.817 80.254 249.75 80.254Z" fill="#D16D0B"/>
<path d="M290.25 63.7549L239.25 113.755" stroke="url(#paint15_linear_450_13168)" stroke-width="2.5"/>
<path d="M272.25 91.7531L244.25 118.753" stroke="url(#paint16_linear_450_13168)" stroke-width="1.5"/>
<path d="M260.25 82.7468L233.25 108.747" stroke="url(#paint17_linear_450_13168)" stroke-width="1.5"/>
<path d="M270.25 103.749L249.25 123.749" stroke="url(#paint18_linear_450_13168)" stroke-width="1.5"/>
<path d="M249.25 83.7484L228.25 103.748" stroke="url(#paint19_linear_450_13168)" stroke-width="1.5"/>
<g filter="url(#filter4_d_450_13168)">
<path d="M87 176C87 126.571 127.071 86.5 176.5 86.5C225.929 86.5 266 126.571 266 176C266 225.429 225.929 265.5 176.5 265.5C127.071 265.5 87 225.429 87 176Z" fill="#883F00"/>
<path d="M176.5 85.5C226.482 85.5 267 126.018 267 176C267 225.982 226.482 266.5 176.5 266.5C126.518 266.5 86 225.982 86 176C86 126.018 126.518 85.5 176.5 85.5Z" stroke="#AC5616" stroke-width="2"/>
</g>
<path d="M176.5 103.5C216.541 103.5 249 135.959 249 176C249 216.041 216.541 248.5 176.5 248.5C136.459 248.5 104 216.041 104 176C104 135.959 136.459 103.5 176.5 103.5Z" fill="url(#paint20_linear_450_13168)" stroke="url(#paint21_linear_450_13168)" stroke-width="3"/>
<g filter="url(#filter5_d_450_13168)">
<path d="M176.5 90C223.996 90 262.5 128.504 262.5 176C262.5 223.496 223.996 262 176.5 262C129.004 262 90.5 223.496 90.5 176C90.5 128.504 129.004 90 176.5 90Z" stroke="url(#paint22_linear_450_13168)" stroke-width="8" shape-rendering="crispEdges"/>
</g>
<defs>
<filter id="filter0_d_450_13168" x="0" y="158.5" width="34" height="34" filterUnits="userSpaceOnUse" color-interpolation-filters="sRGB">
<feFlood flood-opacity="0" result="BackgroundImageFix"/>
<feColorMatrix in="SourceAlpha" type="matrix" values="0 0 0 0 0 0 0 0 0 0 0 0 0 0 0 0 0 0 127 0" result="hardAlpha"/>
<feOffset/>
<feGaussianBlur stdDeviation="6"/>
<feComposite in2="hardAlpha" operator="out"/>
<feColorMatrix type="matrix" values="0 0 0 0 0.984314 0 0 0 0 0.572549 0 0 0 0 0.0901961 0 0 0 0.8 0"/>
<feBlend mode="normal" in2="BackgroundImageFix" result="effect1_dropShadow_450_13168"/>
<feBlend mode="normal" in="SourceGraphic" in2="effect1_dropShadow_450_13168" result="shape"/>
</filter>
<filter id="filter1_d_450_13168" x="158.5" y="318" width="34" height="34" filterUnits="userSpaceOnUse" color-interpolation-filters="sRGB">
<feFlood flood-opacity="0" result="BackgroundImageFix"/>
<feColorMatrix in="SourceAlpha" type="matrix" values="0 0 0 0 0 0 0 0 0 0 0 0 0 0 0 0 0 0 127 0" result="hardAlpha"/>
<feOffset/>
<feGaussianBlur stdDeviation="6"/>
<feComposite in2="hardAlpha" operator="out"/>
<feColorMatrix type="matrix" values="0 0 0 0 0.984314 0 0 0 0 0.572549 0 0 0 0 0.0901961 0 0 0 0.8 0"/>
<feBlend mode="normal" in2="BackgroundImageFix" result="effect1_dropShadow_450_13168"/>
<feBlend mode="normal" in="SourceGraphic" in2="effect1_dropShadow_450_13168" result="shape"/>
</filter>
<filter id="filter2_d_450_13168" x="315" y="159" width="34" height="34" filterUnits="userSpaceOnUse" color-interpolation-filters="sRGB">
<feFlood flood-opacity="0" result="BackgroundImageFix"/>
<feColorMatrix in="SourceAlpha" type="matrix" values="0 0 0 0 0 0 0 0 0 0 0 0 0 0 0 0 0 0 127 0" result="hardAlpha"/>
<feOffset/>
<feGaussianBlur stdDeviation="6"/>
<feComposite in2="hardAlpha" operator="out"/>
<feColorMatrix type="matrix" values="0 0 0 0 0.984314 0 0 0 0 0.572549 0 0 0 0 0.0901961 0 0 0 0.8 0"/>
<feBlend mode="normal" in2="BackgroundImageFix" result="effect1_dropShadow_450_13168"/>
<feBlend mode="normal" in="SourceGraphic" in2="effect1_dropShadow_450_13168" result="shape"/>
</filter>
<filter id="filter3_d_450_13168" x="158.5" y="0" width="34" height="34" filterUnits="userSpaceOnUse" color-interpolation-filters="sRGB">
<feFlood flood-opacity="0" result="BackgroundImageFix"/>
<feColorMatrix in="SourceAlpha" type="matrix" values="0 0 0 0 0 0 0 0 0 0 0 0 0 0 0 0 0 0 127 0" result="hardAlpha"/>
<feOffset/>
<feGaussianBlur stdDeviation="6"/>
<feComposite in2="hardAlpha" operator="out"/>
<feColorMatrix type="matrix" values="0 0 0 0 0.984314 0 0 0 0 0.572549 0 0 0 0 0.0901961 0 0 0 0.8 0"/>
<feBlend mode="normal" in2="BackgroundImageFix" result="effect1_dropShadow_450_13168"/>
<feBlend mode="normal" in="SourceGraphic" in2="effect1_dropShadow_450_13168" result="shape"/>
</filter>
<filter id="filter4_d_450_13168" x="37" y="36.5" width="279" height="279" filterUnits="userSpaceOnUse" color-interpolation-filters="sRGB">
<feFlood flood-opacity="0" result="BackgroundImageFix"/>
<feColorMatrix in="SourceAlpha" type="matrix" values="0 0 0 0 0 0 0 0 0 0 0 0 0 0 0 0 0 0 127 0" result="hardAlpha"/>
<feOffset/>
<feGaussianBlur stdDeviation="24"/>
<feComposite in2="hardAlpha" operator="out"/>
<feColorMatrix type="matrix" values="0 0 0 0 0.784314 0 0 0 0 0.415686 0 0 0 0 0.0745098 0 0 0 0.2 0"/>
<feBlend mode="normal" in2="BackgroundImageFix" result="effect1_dropShadow_450_13168"/>
<feBlend mode="normal" in="SourceGraphic" in2="effect1_dropShadow_450_13168" result="shape"/>
</filter>
<filter id="filter5_d_450_13168" x="38.5" y="38" width="276" height="276" filterUnits="userSpaceOnUse" color-interpolation-filters="sRGB">
<feFlood flood-opacity="0" result="BackgroundImageFix"/>
<feColorMatrix in="SourceAlpha" type="matrix" values="0 0 0 0 0 0 0 0 0 0 0 0 0 0 0 0 0 0 127 0" result="hardAlpha"/>
<feOffset/>
<feGaussianBlur stdDeviation="24"/>
<feComposite in2="hardAlpha" operator="out"/>
<feColorMatrix type="matrix" values="0 0 0 0 0.784314 0 0 0 0 0.415686 0 0 0 0 0.0745098 0 0 0 1 0"/>
<feBlend mode="normal" in2="BackgroundImageFix" result="effect1_dropShadow_450_13168"/>
<feBlend mode="normal" in="SourceGraphic" in2="effect1_dropShadow_450_13168" result="shape"/>
</filter>
<linearGradient id="paint0_linear_450_13168" x1="65.2451" y1="63.25" x2="90.2451" y2="88.25" gradientUnits="userSpaceOnUse">
<stop stop-color="#D16D0B"/>
<stop offset="1" stop-color="#F58D17"/>
</linearGradient>
<linearGradient id="paint1_linear_450_13168" x1="93.1324" y1="81.1373" x2="112.058" y2="99.9365" gradientUnits="userSpaceOnUse">
<stop stop-color="#D16D0B"/>
<stop offset="1" stop-color="#F58D17"/>
</linearGradient>
<linearGradient id="paint2_linear_450_13168" x1="84.1275" y1="93.1324" x2="102.377" y2="111.235" gradientUnits="userSpaceOnUse">
<stop stop-color="#D16D0B"/>
<stop offset="1" stop-color="#F58D17"/>
</linearGradient>
<linearGradient id="paint3_linear_450_13168" x1="105.098" y1="83.1029" x2="119.29" y2="97.0261" gradientUnits="userSpaceOnUse">
<stop stop-color="#D16D0B"/>
<stop offset="1" stop-color="#F58D17"/>
</linearGradient>
<linearGradient id="paint4_linear_450_13168" x1="85.098" y1="104.103" x2="99.2902" y2="118.026" gradientUnits="userSpaceOnUse">
<stop stop-color="#D16D0B"/>
<stop offset="1" stop-color="#F58D17"/>
</linearGradient>
<linearGradient id="paint5_linear_450_13168" x1="63.25" y1="289.255" x2="88.25" y2="264.255" gradientUnits="userSpaceOnUse">
<stop stop-color="#D16D0B"/>
<stop offset="1" stop-color="#F58D17"/>
</linearGradient>
<linearGradient id="paint6_linear_450_13168" x1="81.1373" y1="261.368" x2="99.9365" y2="242.442" gradientUnits="userSpaceOnUse">
<stop stop-color="#D16D0B"/>
<stop offset="1" stop-color="#F58D17"/>
</linearGradient>
<linearGradient id="paint7_linear_450_13168" x1="93.1324" y1="270.373" x2="111.235" y2="252.123" gradientUnits="userSpaceOnUse">
<stop stop-color="#D16D0B"/>
<stop offset="1" stop-color="#F58D17"/>
</linearGradient>
<linearGradient id="paint8_linear_450_13168" x1="83.1029" y1="249.402" x2="97.0261" y2="235.21" gradientUnits="userSpaceOnUse">
<stop stop-color="#D16D0B"/>
<stop offset="1" stop-color="#F58D17"/>
</linearGradient>
<linearGradient id="paint9_linear_450_13168" x1="104.103" y1="269.402" x2="118.026" y2="255.21" gradientUnits="userSpaceOnUse">
<stop stop-color="#D16D0B"/>
<stop offset="1" stop-color="#F58D17"/>
</linearGradient>
<linearGradient id="paint10_linear_450_13168" x1="289.255" y1="288.75" x2="264.255" y2="263.75" gradientUnits="userSpaceOnUse">
<stop stop-color="#D16D0B"/>
<stop offset="1" stop-color="#F58D17"/>
</linearGradient>
<linearGradient id="paint11_linear_450_13168" x1="261.368" y1="270.863" x2="242.442" y2="252.063" gradientUnits="userSpaceOnUse">
<stop stop-color="#D16D0B"/>
<stop offset="1" stop-color="#F58D17"/>
</linearGradient>
<linearGradient id="paint12_linear_450_13168" x1="270.373" y1="258.868" x2="252.123" y2="240.765" gradientUnits="userSpaceOnUse">
<stop stop-color="#D16D0B"/>
<stop offset="1" stop-color="#F58D17"/>
</linearGradient>
<linearGradient id="paint13_linear_450_13168" x1="249.402" y1="268.897" x2="235.21" y2="254.974" gradientUnits="userSpaceOnUse">
<stop stop-color="#D16D0B"/>
<stop offset="1" stop-color="#F58D17"/>
</linearGradient>
<linearGradient id="paint14_linear_450_13168" x1="269.402" y1="247.897" x2="255.21" y2="233.974" gradientUnits="userSpaceOnUse">
<stop stop-color="#D16D0B"/>
<stop offset="1" stop-color="#F58D17"/>
</linearGradient>
<linearGradient id="paint15_linear_450_13168" x1="290" y1="64" x2="265" y2="89" gradientUnits="userSpaceOnUse">
<stop stop-color="#D16D0B"/>
<stop offset="1" stop-color="#F58D17"/>
</linearGradient>
<linearGradient id="paint16_linear_450_13168" x1="272.113" y1="91.8854" x2="253.313" y2="110.811" gradientUnits="userSpaceOnUse">
<stop stop-color="#D16D0B"/>
<stop offset="1" stop-color="#F58D17"/>
</linearGradient>
<linearGradient id="paint17_linear_450_13168" x1="260.118" y1="82.8743" x2="242.015" y2="101.124" gradientUnits="userSpaceOnUse">
<stop stop-color="#D16D0B"/>
<stop offset="1" stop-color="#F58D17"/>
</linearGradient>
<linearGradient id="paint18_linear_450_13168" x1="270.147" y1="103.847" x2="256.224" y2="118.039" gradientUnits="userSpaceOnUse">
<stop stop-color="#D16D0B"/>
<stop offset="1" stop-color="#F58D17"/>
</linearGradient>
<linearGradient id="paint19_linear_450_13168" x1="249.147" y1="83.8464" x2="235.224" y2="98.0386" gradientUnits="userSpaceOnUse">
<stop stop-color="#D16D0B"/>
<stop offset="1" stop-color="#F58D17"/>
</linearGradient>
<linearGradient id="paint20_linear_450_13168" x1="216.5" y1="114" x2="132" y2="235" gradientUnits="userSpaceOnUse">
<stop stop-color="#C25F0B"/>
<stop offset="0.5" stop-color="#FDBA53"/>
<stop offset="1" stop-color="#C25F0B"/>
</linearGradient>
<linearGradient id="paint21_linear_450_13168" x1="217.5" y1="114.5" x2="127.5" y2="231.5" gradientUnits="userSpaceOnUse">
<stop stop-color="#ED9427"/>
<stop offset="0.5" stop-color="#C25F0B"/>
<stop offset="1" stop-color="#ED9427"/>
</linearGradient>
<linearGradient id="paint22_linear_450_13168" x1="226.365" y1="101.203" x2="116.905" y2="243.5" gradientUnits="userSpaceOnUse">
<stop stop-color="#ED9427"/>
<stop offset="0.5" stop-color="#FDBA53"/>
<stop offset="1" stop-color="#ED9427"/>
</linearGradient>
</defs>
</svg>
